# xmcd
#
# Track frame offsets: 
#        150
#        3511
#        9555
#        24206
#        37689
#        48564
#        61173
#        73348
#        86309
#        97896
#        108825
#        120332
#        137510
#        146661
#        148589
#        154595
#        169767
#        182390
#        193871
#        206762
#        218421
#        229934
#        241213
#        251497
#        262645
#        281246
#        290383
#
# Disc length: 3931 seconds
#
# Revision: 0
# Processed by: cddbd v1.5.2PL0 Copyright (c) Steve Scherf et al.
# Submitted via: ExactAudioCopy v0.95b3
#
DISCID=670f591b
DTITLE=The Beatles  - Beatles Live 07 - Les Beatles en Europe - Disc 1
DYEAR=1900
DGENRE=
TTITLE0=intro (Et Maintenant Une Chanson and Live In Paris 1965)
TTITLE1=Twist And Shout (Live In Paris 1965)
TTITLE2=She's A Woman (LIP and EMUC and LIP)
TTITLE3=I'm A Loser (Live In Paris 1965)
TTITLE4=Can't Buy Me Love (LIP and EMUC)
TTITLE5=Baby's In Black (EMUC and LIP and EMUC and LIP)
TTITLE6=I Wanna Be Your Man (LIP and EMUC and LIP)
TTITLE7=A Hard Day's Night (LIP and EMUC and LIP)
TTITLE8=Everybody's Trying To Be My Baby (LIP and EMUC and LIP)
TTITLE9=Rock And Roll Music (Live In Paris 1965)
TTITLE10=I Feel Fine (LIP and EMUC and LIP)
TTITLE11=Ticket To Ride (EMUC and LIP and EMUC and LIP and EMUC and LIP)
TTITLE12=Long Tall Sally (LIP and City Of Light)
TTITLE13=intro (City of Light)
TTITLE14=Twist And Shout (City of Light)
TTITLE15=She's A Woman (City of Light)
TTITLE16=I'm A Loser (City of Light)
TTITLE17=Can't Buy Me Love (City of Light)
TTITLE18=Baby's In Black (City of Light)
TTITLE19=I Wanna Be Your Man (City of Light)
TTITLE20=A Hard Day's Night (City of Light)
TTITLE21=Everybody's Trying To Be My Baby
TTITLE22=Rock And Roll Music
TTITLE23=I Feel Fine (Can You Hear Me? and City of Light)
TTITLE24=Ticket To Ride (City of Light)
TTITLE25=Long Tall Sally (City of Light)
TTITLE26=outro (City of Light and Live in Melbourne 1964 and Paris 1965)
EXTD=
EXTT0=
EXTT1=
EXTT2=
EXTT3=
EXTT4=
EXTT5=
EXTT6=
EXTT7=
EXTT8=
EXTT9=
EXTT10=
EXTT11=
EXTT12=
EXTT13=
EXTT14=
EXTT15=
EXTT16=
EXTT17=
EXTT18=
EXTT19=
EXTT20=
EXTT21=
EXTT22=
EXTT23=
EXTT24=
EXTT25=
EXTT26=
PLAYORDER=
